<svg xmlns="http://www.w3.org/2000/svg" viewBox="0 0 512 512" width="512" height="512">
  <defs>
    <linearGradient id="bg" x1="0%" y1="0%" x2="100%" y2="100%">
      <stop offset="0%" style="stop-color:#1e40af"/>
      <stop offset="100%" style="stop-color:#3b82f6"/>
    </linearGradient>
  </defs>
  <rect width="512" height="512" rx="96" fill="url(#bg)"/>
  <path d="M256 80 C200 80, 140 110, 140 170 L140 200 C140 280, 180 340, 256 380 C332 340, 372 280, 372 200 L372 170 C372 110, 312 80, 256 80Z" fill="none" stroke="white" stroke-width="16" opacity="0.3"/>
  <path d="M256 120 C212 120, 172 145, 172 190 L172 210 C172 275, 200 320, 256 352 C312 320, 340 275, 340 210 L340 190 C340 145, 300 120, 256 120Z" fill="none" stroke="white" stroke-width="12"/>
  <polyline points="220,260 248,290 300,220" fill="none" stroke="white" stroke-width="18" stroke-linecap="round" stroke-linejoin="round"/>
</svg>
